<svg width="60" height="60" viewBox="0 0 60 60" fill="none" xmlns="http://www.w3.org/2000/svg">
<rect x="0.5625" y="0.5625" width="58.875" height="58.875" rx="14.4375" stroke="#2E2BD0" stroke-width="1.125"/>
<path d="M31.875 21.1875V26.625H36.75C37.125 26.625 37.3125 27 37.3125 27.375L36.5625 30.9375C36.5625 31.125 36.1875 31.3125 36 31.3125H31.875V45H26.25V31.5H23.0625C22.6875 31.5 22.5 31.3125 22.5 30.9375V27.375C22.5 27 22.6875 26.8125 23.0625 26.8125H26.25V20.625C26.25 17.4375 28.6875 15 31.875 15H36.9375C37.3125 15 37.5 15.1875 37.5 15.5625V20.0625C37.5 20.4375 37.3125 20.625 36.9375 20.625H32.4375C32.0625 20.625 31.875 20.8125 31.875 21.1875Z" stroke="#2E2BD0" stroke-width="1.125" stroke-miterlimit="10" stroke-linecap="round"/>
</svg>
