<svg width="60" height="60" viewBox="0 0 60 60" fill="none" xmlns="http://www.w3.org/2000/svg">
<rect x="0.5625" y="0.5625" width="58.875" height="58.875" rx="14.4375" stroke="#2E2BD0" stroke-width="1.125"/>
<path d="M20.4375 46.125C23.25 47.8125 26.625 48.75 30 48.75C40.3125 48.75 48.75 40.3125 48.75 30C48.75 19.6875 40.3125 11.25 30 11.25C19.6875 11.25 11.25 19.6875 11.25 30C11.25 33.375 12.1875 36.5625 13.6875 39.375L11.5803 47.4795C11.4343 48.0412 11.9542 48.5488 12.5122 48.3894L20.4375 46.125Z" stroke="#2E2BD0" stroke-width="1.125" stroke-miterlimit="10" stroke-linecap="round" stroke-linejoin="round"/>
<path d="M38.4375 35.3409C38.4375 35.6447 38.3699 35.9569 38.2262 36.2606C38.0826 36.5644 37.8967 36.8513 37.6516 37.1213C37.2376 37.5769 36.7813 37.9059 36.2658 38.1169C35.7588 38.3278 35.2095 38.4375 34.618 38.4375C33.7561 38.4375 32.835 38.235 31.8633 37.8216C30.8915 37.4081 29.9197 36.8513 28.9564 36.1509C27.9846 35.4422 27.0636 34.6575 26.1847 33.7884C25.3144 32.9109 24.5285 31.9913 23.8271 31.0294C23.1342 30.0675 22.5765 29.1056 22.1709 28.1522C21.7653 27.1903 21.5625 26.2706 21.5625 25.3931C21.5625 24.8194 21.6639 24.2709 21.8667 23.7647C22.0695 23.25 22.3906 22.7775 22.8385 22.3556C23.3793 21.8241 23.9708 21.5625 24.5961 21.5625C24.8327 21.5625 25.0693 21.6131 25.2806 21.7144C25.5003 21.8156 25.6946 21.9675 25.8467 22.1869L27.8072 24.9459C27.9593 25.1569 28.0691 25.3509 28.1452 25.5366C28.2212 25.7138 28.2635 25.8909 28.2635 26.0513C28.2635 26.2538 28.2043 26.4562 28.086 26.6503C27.9762 26.8444 27.8156 27.0469 27.6128 27.2494L26.9706 27.9159C26.8777 28.0087 26.8354 28.1184 26.8354 28.2534C26.8354 28.3209 26.8439 28.38 26.8608 28.4475C26.8861 28.515 26.9115 28.5656 26.9284 28.6162C27.0805 28.8947 27.3424 29.2575 27.7142 29.6963C28.0945 30.135 28.5001 30.5822 28.9395 31.0294C29.3958 31.4766 29.8352 31.89 30.2831 32.2697C30.7225 32.6409 31.0858 32.8941 31.3732 33.0459C31.4154 33.0628 31.4661 33.0881 31.5253 33.1134C31.5929 33.1387 31.6605 33.1472 31.7365 33.1472C31.8802 33.1472 31.99 33.0966 32.083 33.0038L32.7252 32.3709C32.9364 32.16 33.1392 31.9997 33.3336 31.8984C33.5279 31.7803 33.7223 31.7212 33.9336 31.7212C34.0941 31.7212 34.2631 31.755 34.449 31.8309C34.6349 31.9069 34.8293 32.0166 35.0405 32.16L37.8375 34.1428C38.0572 34.2947 38.2093 34.4719 38.3023 34.6828C38.3868 34.8937 38.4375 35.1047 38.4375 35.3409Z" stroke="#2E2BD0" stroke-width="1.125" stroke-miterlimit="10"/>
</svg>
